<svg xmlns="http://www.w3.org/2000/svg" width="1600" height="1600" viewBox="0 0 1600 1600"><defs><mask id="ringMask"><rect x="0" y="0" width="1600" height="1600" fill="black" /><circle cx="800.000" cy="800.000" r="670.000" fill="white" /><circle cx="800.000" cy="800.000" r="460.000" fill="black" /></mask></defs>
<circle cx="800.000" cy="800.000" r="670.000" fill="none" stroke="#d4af37" stroke-width="4.500" />
<circle cx="800.000" cy="800.000" r="460.000" fill="none" stroke="#d4af37" stroke-width="4.500" />
<circle cx="800.000" cy="800.000" r="565.000" fill="none" stroke="#b7892e" stroke-width="1.200" />
<g mask="url(#ringMask)"><path d="M1375.000,800.000 L1374.994,801.642 L1374.974,803.284 L1374.942,804.926 L1374.897,806.568 L1374.840,808.209 L1374.769,809.850 L1374.686,811.491 L1374.590,813.130 L1374.482,814.770 L1374.361,816.408 L1374.227,818.046 L1374.081,819.683 L1373.923,821.318 L1373.752,822.953 L1373.570,824.587 L1373.375,826.219 L1373.168,827.850 L1372.950,829.480 L1372.719,831.109 L1372.477,832.735 L1372.224,834.361 L1371.959,835.985 L1371.683,837.607 L1371.396,839.227 L1371.099,840.846 L1370.790,842.463 L1370.471,844.077 L1370.142,845.690 L1369.802,847.301 L1369.452,848.910 L1369.092,850.517 L1368.723,852.122 L1368.344,853.724 L1367.956,855.325 L1367.559,856.923 L1367.153,858.519 L1366.738,860.112 L1366.315,861.703 L1365.884,863.292 L1365.444,864.879 L1364.997,866.463 L1364.542,868.044 L1364.080,869.624 L1363.611,871.201 L1363.134,872.775 L1362.651,874.347 L1362.162,875.916 L1361.667,877.484 L1361.165,879.048 L1360.658,880.610 L1360.145,882.170 L1359.627,883.728 L1359.104,885.283 L1358.576,886.835 L1358.044,888.385 L1357.507,889.933 L1356.967,891.479 L1356.422,893.022 L1355.874,894.563 L1355.323,896.102 L1354.768,897.639 L1354.211,899.174 L1353.651,900.706 L1353.088,902.237 L1352.523,903.765 L1351.957,905.291 L1351.389,906.816 L1350.819,908.339 L1350.247,909.860 L1349.675,911.379 L1349.102,912.896 L1348.528,914.412 L1347.954,915.926 L1347.380,917.439 L1346.805,918.950 L1346.231,920.460 L1345.657,921.969 L1345.083,923.476 L1344.510,924.982 L1343.938,926.487 L1343.367,927.992 L1342.798,929.495 L1342.229,930.997 L1341.663,932.498 L1341.097,933.999 L1340.534,935.499 L1339.973,936.999 L1339.413,938.498 L1338.856,939.996 L1338.302,941.495 L1337.750,942.993 L1337.200,944.491 L1336.653,945.988 L1336.109,947.486 L1335.568,948.984 L1335.029,950.482 L1334.494,951.980 L1333.962,953.478 L1333.433,954.977 L1332.907,956.476 L1332.385,957.975 L1331.866,959.475 L1331.350,960.976 L1330.838,962.478 L1330.329,963.980 L1329.823,965.483 L1329.321,966.987 L1328.823,968.492 L1328.328,969.997 L1327.836,971.504 L1327.348,973.012 L1326.864,974.522 L1326.382,976.032 L1325.904,977.544 L1325.430,979.057 L1324.959,980.571 L1324.491,982.087 L1324.026,983.605 L1323.564,985.123 L1323.105,986.644 L1322.649,988.165 L1322.196,989.689 L1321.746,991.214 L1321.299,992.740 L1320.854,994.268 L1320.411,995.798 L1319.971,997.330 L1319.533,998.863 L1319.098,1000.398 L1318.664,1001.934 L1318.232,1003.472 L1317.802,1005.012 L1317.373,1006.554 L1316.946,1008.097 L1316.520,1009.641 L1316.095,1011.188 L1315.671,1012.736 L1315.248,1014.285 L1314.825,1015.836 L1314.403,1017.388 L1313.981,1018.942 L1313.559,1020.498 L1313.137,1022.054 L1312.715,1023.612 L1312.292,1025.171 L1311.868,1026.732 L1311.444,1028.293 L1311.018,1029.856 L1310.592,1031.419 L1310.163,1032.984 L1309.733,1034.549 L1309.301,1036.115 L1308.868,1037.682 L1308.431,1039.250 L1307.992,1040.818 L1307.551,1042.386 L1307.106,1043.955 L1306.659,1045.524 L1306.208,1047.093 L1305.753,1048.662 L1305.295,1050.231 L1304.832,1051.800 L1304.365,1053.369 L1303.894,1054.937 L1303.419,1056.505 L1302.938,1058.072 L1302.453,1059.638 L1301.962,1061.203 L1301.465,1062.768 L1300.963,1064.331 L1300.455,1065.893 L1299.941,1067.454 L1299.421,1069.013 L1298.895,1070.570 L1298.361,1072.126 L1297.821,1073.680 L1297.274,1075.231 L1296.720,1076.780 L1296.158,1078.327 L1295.589,1079.872 L1295.012,1081.414 L1294.427,1082.953 L1293.834,1084.489 L1293.233,1086.022 L1292.623,1087.551 L1292.005,1089.078 L1291.379,1090.600 L1290.743,1092.120 L1290.099,1093.635 L1289.445,1095.146 L1288.782,1096.653 L1288.110,1098.156 L1287.429,1099.655 L1286.738,1101.149 L1286.037,1102.638 L1285.327,1104.123 L1284.606,1105.603 L1283.876,1107.077 L1283.136,1108.546 L1282.385,1110.010 L1281.625,1111.469 L1280.854,1112.921 L1280.073,1114.368 L1279.281,1115.810 L1278.479,1117.245 L1277.667,1118.674 L1276.844,1120.096 L1276.011,1121.513 L1275.167,1122.923 L1274.312,1124.326 L1273.447,1125.723 L1272.571,1127.113 L1271.685,1128.496 L1270.788,1129.872 L1269.880,1131.241 L1268.962,1132.603 L1268.034,1133.957 L1267.094,1135.304 L1266.145,1136.644 L1265.185,1137.977 L1264.214,1139.301 L1263.234,1140.618 L1262.242,1141.928 L1261.241,1143.230 L1260.230,1144.524 L1259.208,1145.810 L1258.177,1147.088 L1257.135,1148.358 L1256.084,1149.621 L1255.023,1150.875 L1253.952,1152.122 L1252.872,1153.360 L1251.783,1154.590 L1250.684,1155.813 L1249.576,1157.027 L1248.459,1158.233 L1247.333,1159.431 L1246.198,1160.621 L1245.054,1161.803 L1243.903,1162.977 L1242.742,1164.143 L1241.574,1165.301 L1240.397,1166.452 L1239.212,1167.594 L1238.020,1168.728 L1236.820,1169.855 L1235.613,1170.974 L1234.398,1172.085 L1233.176,1173.189 L1231.948,1174.285 L1230.712,1175.373 L1229.470,1176.454 L1228.222,1177.528 L1226.967,1178.595 L1225.707,1179.654 L1224.440,1180.707 L1223.168,1181.752 L1221.890,1182.791 L1220.607,1183.823 L1219.319,1184.848 L1218.026,1185.866 L1216.729,1186.879 L1215.426,1187.885 L1214.120,1188.884 L1212.809,1189.878 L1211.495,1190.866 L1210.176,1191.848 L1208.854,1192.825 L1207.529,1193.796 L1206.200,1194.762 L1204.868,1195.722 L1203.534,1196.678 L1202.197,1197.628 L1200.857,1198.574 L1199.515,1199.515 L1198.171,1200.452 L1196.825,1201.385 L1195.478,1202.313 L1194.129,1203.238 L1192.778,1204.159 L1191.426,1205.076 L1190.073,1205.990 L1188.719,1206.901 L1187.365,1207.808 L1186.009,1208.713 L1184.654,1209.615 L1183.298,1210.514 L1181.942,1211.411 L1180.586,1212.306 L1179.230,1213.198 L1177.874,1214.089 L1176.519,1214.978 L1175.165,1215.866 L1173.811,1216.752 L1172.457,1217.637 L1171.105,1218.521 L1169.754,1219.404 L1168.404,1220.286 L1167.055,1221.168 L1165.708,1222.049 L1164.362,1222.931 L1163.017,1223.812 L1161.675,1224.693 L1160.334,1225.575 L1158.994,1226.457 L1157.657,1227.339 L1156.321,1228.222 L1154.988,1229.106 L1153.656,1229.991 L1152.327,1230.878 L1151.000,1231.765 L1149.675,1232.654 L1148.352,1233.544 L1147.031,1234.436 L1145.713,1235.329 L1144.397,1236.225 L1143.083,1237.122 L1141.772,1238.021 L1140.463,1238.923 L1139.157,1239.827 L1137.853,1240.733 L1136.551,1241.641 L1135.252,1242.552 L1133.955,1243.466 L1132.660,1244.382 L1131.368,1245.301 L1130.078,1246.222 L1128.790,1247.147 L1127.504,1248.074 L1126.221,1249.004 L1124.940,1249.938 L1123.660,1250.874 L1122.383,1251.813 L1121.108,1252.755 L1119.835,1253.700 L1118.563,1254.648 L1117.294,1255.600 L1116.026,1256.554 L1114.759,1257.511 L1113.495,1258.471 L1112.231,1259.435 L1110.970,1260.401 L1109.709,1261.370 L1108.450,1262.342 L1107.191,1263.317 L1105.934,1264.294 L1104.678,1265.275 L1103.423,1266.258 L1102.168,1267.243 L1100.914,1268.231 L1099.660,1269.222 L1098.407,1270.215 L1097.154,1271.210 L1095.902,1272.207 L1094.649,1273.206 L1093.396,1274.207 L1092.144,1275.210 L1090.890,1276.215 L1089.637,1277.222 L1088.383,1278.229 L1087.128,1279.238 L1085.873,1280.249 L1084.616,1281.260 L1083.359,1282.272 L1082.100,1283.285 L1080.841,1284.298 L1079.579,1285.312 L1078.317,1286.326 L1077.052,1287.340 L1075.786,1288.354 L1074.518,1289.368 L1073.248,1290.381 L1071.976,1291.394 L1070.702,1292.405 L1069.425,1293.416 L1068.146,1294.425 L1066.865,1295.433 L1065.580,1296.439 L1064.293,1297.444 L1063.003,1298.446 L1061.710,1299.446 L1060.413,1300.443 L1059.114,1301.438 L1057.811,1302.430 L1056.505,1303.419 L1055.195,1304.404 L1053.881,1305.386 L1052.564,1306.364 L1051.243,1307.338 L1049.918,1308.307 L1048.589,1309.272 L1047.256,1310.233 L1045.919,1311.188 L1044.577,1312.139 L1043.231,1313.084 L1041.881,1314.023 L1040.526,1314.957 L1039.167,1315.885 L1037.804,1316.806 L1036.435,1317.721 L1035.062,1318.629 L1033.684,1319.530 L1032.302,1320.424 L1030.914,1321.311 L1029.522,1322.191 L1028.125,1323.062 L1026.723,1323.926 L1025.316,1324.781 L1023.904,1325.628 L1022.487,1326.467 L1021.065,1327.297 L1019.638,1328.118 L1018.205,1328.930 L1016.768,1329.732 L1015.326,1330.525 L1013.878,1331.309 L1012.426,1332.082 L1010.969,1332.846 L1009.506,1333.599 L1008.038,1334.343 L1006.566,1335.075 L1005.088,1335.798 L1003.606,1336.509 L1002.118,1337.210 L1000.626,1337.899 L999.129,1338.578 L997.627,1339.245 L996.120,1339.901 L994.609,1340.546 L993.092,1341.179 L991.571,1341.800 L990.046,1342.410 L988.516,1343.008 L986.982,1343.594 L985.443,1344.168 L983.899,1344.730 L982.352,1345.280 L980.800,1345.818 L979.245,1346.344 L977.685,1346.857 L976.121,1347.359 L974.553,1347.848 L972.982,1348.325 L971.407,1348.789 L969.828,1349.242 L968.245,1349.682 L966.659,1350.110 L965.070,1350.525 L963.478,1350.929 L961.882,1351.320 L960.283,1351.699 L958.682,1352.066 L957.077,1352.421 L955.470,1352.764 L953.859,1353.095 L952.247,1353.414 L950.631,1353.721 L949.014,1354.017 L947.394,1354.301 L945.772,1354.574 L944.148,1354.835 L942.522,1355.085 L940.894,1355.324 L939.264,1355.552 L937.633,1355.769 L936.000,1355.975 L934.365,1356.171 L932.729,1356.356 L931.092,1356.531 L929.454,1356.695 L927.815,1356.850 L926.174,1356.994 L924.533,1357.129 L922.891,1357.255 L921.249,1357.371 L919.605,1357.478 L917.962,1357.576 L916.318,1357.665 L914.673,1357.746 L913.029,1357.818 L911.384,1357.882 L909.739,1357.938 L908.094,1357.987 L906.449,1358.028 L904.805,1358.061 L903.161,1358.088 L901.517,1358.107 L899.873,1358.120 L898.230,1358.127 L896.588,1358.127 L894.946,1358.122 L893.305,1358.110 L891.664,1358.093 L890.024,1358.071 L888.385,1358.044 L886.747,1358.012 L885.110,1357.975 L883.474,1357.934 L881.839,1357.889 L880.205,1357.840 L878.572,1357.788 L876.941,1357.732 L875.310,1357.673 L873.681,1357.611 L872.053,1357.546 L870.426,1357.479 L868.800,1357.410 L867.176,1357.338 L865.553,1357.265 L863.932,1357.190 L862.311,1357.114 L860.692,1357.037 L859.075,1356.958 L857.459,1356.880 L855.844,1356.800 L854.230,1356.721 L852.618,1356.641 L851.007,1356.561 L849.398,1356.482 L847.789,1356.403 L846.183,1356.325 L844.577,1356.247 L842.973,1356.171 L841.369,1356.096 L839.767,1356.022 L838.167,1355.950 L836.567,1355.880 L834.969,1355.811 L833.371,1355.744 L831.775,1355.680 L830.180,1355.617 L828.585,1355.558 L826.992,1355.500 L825.399,1355.446 L823.808,1355.394 L822.217,1355.345 L820.627,1355.298 L819.037,1355.255 L817.448,1355.215 L815.860,1355.179 L814.273,1355.145 L812.685,1355.115 L811.099,1355.088 L809.513,1355.065 L807.927,1355.045 L806.341,1355.029 L804.755,1355.016 L803.170,1355.007 L801.585,1355.002 L800.000,1355.000 L798.415,1355.002 L796.830,1355.007 L795.245,1355.016 L793.659,1355.029 L792.073,1355.045 L790.487,1355.065 L788.901,1355.088 L787.315,1355.115 L785.727,1355.145 L784.140,1355.179 L782.552,1355.215 L780.963,1355.255 L779.373,1355.298 L777.783,1355.345 L776.192,1355.394 L774.601,1355.446 L773.008,1355.500 L771.415,1355.558 L769.820,1355.617 L768.225,1355.680 L766.629,1355.744 L765.031,1355.811 L763.433,1355.880 L761.833,1355.950 L760.233,1356.022 L758.631,1356.096 L757.027,1356.171 L755.423,1356.247 L753.817,1356.325 L752.211,1356.403 L750.602,1356.482 L748.993,1356.561 L747.382,1356.641 L745.770,1356.721 L744.156,1356.800 L742.541,1356.880 L740.925,1356.958 L739.308,1357.037 L737.689,1357.114 L736.068,1357.190 L734.447,1357.265 L732.824,1357.338 L731.200,1357.410 L729.574,1357.479 L727.947,1357.546 L726.319,1357.611 L724.690,1357.673 L723.059,1357.732 L721.428,1357.788 L719.795,1357.840 L718.161,1357.889 L716.526,1357.934 L714.890,1357.975 L713.253,1358.012 L711.615,1358.044 L709.976,1358.071 L708.336,1358.093 L706.695,1358.110 L705.054,1358.122 L703.412,1358.127 L701.770,1358.127 L700.127,1358.120 L698.483,1358.107 L696.839,1358.088 L695.195,1358.061 L693.551,1358.028 L691.906,1357.987 L690.261,1357.938 L688.616,1357.882 L686.971,1357.818 L685.327,1357.746 L683.682,1357.665 L682.038,1357.576 L680.395,1357.478 L678.751,1357.371 L677.109,1357.255 L675.467,1357.129 L673.826,1356.994 L672.185,1356.850 L670.546,1356.695 L668.908,1356.531 L667.271,1356.356 L665.635,1356.171 L664.000,1355.975 L662.367,1355.769 L660.736,1355.552 L659.106,1355.324 L657.478,1355.085 L655.852,1354.835 L654.228,1354.574 L652.606,1354.301 L650.986,1354.017 L649.369,1353.721 L647.753,1353.414 L646.141,1353.095 L644.530,1352.764 L642.923,1352.421 L641.318,1352.066 L639.717,1351.699 L638.118,1351.320 L636.522,1350.929 L634.930,1350.525 L633.341,1350.110 L631.755,1349.682 L630.172,1349.242 L628.593,1348.789 L627.018,1348.325 L625.447,1347.848 L623.879,1347.359 L622.315,1346.857 L620.755,1346.344 L619.200,1345.818 L617.648,1345.280 L616.101,1344.730 L614.557,1344.168 L613.018,1343.594 L611.484,1343.008 L609.954,1342.410 L608.429,1341.800 L606.908,1341.179 L605.391,1340.546 L603.880,1339.901 L602.373,1339.245 L600.871,1338.578 L599.374,1337.899 L597.882,1337.210 L596.394,1336.509 L594.912,1335.798 L593.434,1335.075 L591.962,1334.343 L590.494,1333.599 L589.031,1332.846 L587.574,1332.082 L586.122,1331.309 L584.674,1330.525 L583.232,1329.732 L581.795,1328.930 L580.362,1328.118 L578.935,1327.297 L577.513,1326.467 L576.096,1325.628 L574.684,1324.781 L573.277,1323.926 L571.875,1323.062 L570.478,1322.191 L569.086,1321.311 L567.698,1320.424 L566.316,1319.530 L564.938,1318.629 L563.565,1317.721 L562.196,1316.806 L560.833,1315.885 L559.474,1314.957 L558.119,1314.023 L556.769,1313.084 L555.423,1312.139 L554.081,1311.188 L552.744,1310.233 L551.411,1309.272 L550.082,1308.307 L548.757,1307.338 L547.436,1306.364 L546.119,1305.386 L544.805,1304.404 L543.495,1303.419 L542.189,1302.430 L540.886,1301.438 L539.587,1300.443 L538.290,1299.446 L536.997,1298.446 L535.707,1297.444 L534.420,1296.439 L533.135,1295.433 L531.854,1294.425 L530.575,1293.416 L529.298,1292.405 L528.024,1291.394 L526.752,1290.381 L525.482,1289.368 L524.214,1288.354 L522.948,1287.340 L521.683,1286.326 L520.421,1285.312 L519.159,1284.298 L517.900,1283.285 L516.641,1282.272 L515.384,1281.260 L514.127,1280.249 L512.872,1279.238 L511.617,1278.229 L510.363,1277.222 L509.110,1276.215 L507.856,1275.210 L506.604,1274.207 L505.351,1273.206 L504.098,1272.207 L502.846,1271.210 L501.593,1270.215 L500.340,1269.222 L499.086,1268.231 L497.832,1267.243 L496.577,1266.258 L495.322,1265.275 L494.066,1264.294 L492.809,1263.317 L491.550,1262.342 L490.291,1261.370 L489.030,1260.401 L487.769,1259.435 L486.505,1258.471 L485.241,1257.511 L483.974,1256.554 L482.706,1255.600 L481.437,1254.648 L480.165,1253.700 L478.892,1252.755 L477.617,1251.813 L476.340,1250.874 L475.060,1249.938 L473.779,1249.004 L472.496,1248.074 L471.210,1247.147 L469.922,1246.222 L468.632,1245.301 L467.340,1244.382 L466.045,1243.466 L464.748,1242.552 L463.449,1241.641 L462.147,1240.733 L460.843,1239.827 L459.537,1238.923 L458.228,1238.021 L456.917,1237.122 L455.603,1236.225 L454.287,1235.329 L452.969,1234.436 L451.648,1233.544 L450.325,1232.654 L449.000,1231.765 L447.673,1230.878 L446.344,1229.991 L445.012,1229.106 L443.679,1228.222 L442.343,1227.339 L441.006,1226.457 L439.666,1225.575 L438.325,1224.693 L436.983,1223.812 L435.638,1222.931 L434.292,1222.049 L432.945,1221.168 L431.596,1220.286 L430.246,1219.404 L428.895,1218.521 L427.543,1217.637 L426.189,1216.752 L424.835,1215.866 L423.481,1214.978 L422.126,1214.089 L420.770,1213.198 L419.414,1212.306 L418.058,1211.411 L416.702,1210.514 L415.346,1209.615 L413.991,1208.713 L412.635,1207.808 L411.281,1206.901 L409.927,1205.990 L408.574,1205.076 L407.222,1204.159 L405.871,1203.238 L404.522,1202.313 L403.175,1201.385 L401.829,1200.452 L400.485,1199.515 L399.143,1198.574 L397.803,1197.628 L396.466,1196.678 L395.132,1195.722 L393.800,1194.762 L392.471,1193.796 L391.146,1192.825 L389.824,1191.848 L388.505,1190.866 L387.191,1189.878 L385.880,1188.884 L384.574,1187.885 L383.271,1186.879 L381.974,1185.866 L380.681,1184.848 L379.393,1183.823 L378.110,1182.791 L376.832,1181.752 L375.560,1180.707 L374.293,1179.654 L373.033,1178.595 L371.778,1177.528 L370.530,1176.454 L369.288,1175.373 L368.052,1174.285 L366.824,1173.189 L365.602,1172.085 L364.387,1170.974 L363.180,1169.855 L361.980,1168.728 L360.788,1167.594 L359.603,1166.452 L358.426,1165.301 L357.258,1164.143 L356.097,1162.977 L354.946,1161.803 L353.802,1160.621 L352.667,1159.431 L351.541,1158.233 L350.424,1157.027 L349.316,1155.813 L348.217,1154.590 L347.128,1153.360 L346.048,1152.122 L344.977,1150.875 L343.916,1149.621 L342.865,1148.358 L341.823,1147.088 L340.792,1145.810 L339.770,1144.524 L338.759,1143.230 L337.758,1141.928 L336.766,1140.618 L335.786,1139.301 L334.815,1137.977 L333.855,1136.644 L332.906,1135.304 L331.966,1133.957 L331.038,1132.603 L330.120,1131.241 L329.212,1129.872 L328.315,1128.496 L327.429,1127.113 L326.553,1125.723 L325.688,1124.326 L324.833,1122.923 L323.989,1121.513 L323.156,1120.096 L322.333,1118.674 L321.521,1117.245 L320.719,1115.810 L319.927,1114.368 L319.146,1112.921 L318.375,1111.469 L317.615,1110.010 L316.864,1108.546 L316.124,1107.077 L315.394,1105.603 L314.673,1104.123 L313.963,1102.638 L313.262,1101.149 L312.571,1099.655 L311.890,1098.156 L311.218,1096.653 L310.555,1095.146 L309.901,1093.635 L309.257,1092.120 L308.621,1090.600 L307.995,1089.078 L307.377,1087.551 L306.767,1086.022 L306.166,1084.489 L305.573,1082.953 L304.988,1081.414 L304.411,1079.872 L303.842,1078.327 L303.280,1076.780 L302.726,1075.231 L302.179,1073.680 L301.639,1072.126 L301.105,1070.570 L300.579,1069.013 L300.059,1067.454 L299.545,1065.893 L299.037,1064.331 L298.535,1062.768 L298.038,1061.203 L297.547,1059.638 L297.062,1058.072 L296.581,1056.505 L296.106,1054.937 L295.635,1053.369 L295.168,1051.800 L294.705,1050.231 L294.247,1048.662 L293.792,1047.093 L293.341,1045.524 L292.894,1043.955 L292.449,1042.386 L292.008,1040.818 L291.569,1039.250 L291.132,1037.682 L290.699,1036.115 L290.267,1034.549 L289.837,1032.984 L289.408,1031.419 L288.982,1029.856 L288.556,1028.293 L288.132,1026.732 L287.708,1025.171 L287.285,1023.612 L286.863,1022.054 L286.441,1020.498 L286.019,1018.942 L285.597,1017.388 L285.175,1015.836 L284.752,1014.285 L284.329,1012.736 L283.905,1011.188 L283.480,1009.641 L283.054,1008.097 L282.627,1006.554 L282.198,1005.012 L281.768,1003.472 L281.336,1001.934 L280.902,1000.398 L280.467,998.863 L280.029,997.330 L279.589,995.798 L279.146,994.268 L278.701,992.740 L278.254,991.214 L277.804,989.689 L277.351,988.165 L276.895,986.644 L276.436,985.123 L275.974,983.605 L275.509,982.087 L275.041,980.571 L274.570,979.057 L274.096,977.544 L273.618,976.032 L273.136,974.522 L272.652,973.012 L272.164,971.504 L271.672,969.997 L271.177,968.492 L270.679,966.987 L270.177,965.483 L269.671,963.980 L269.162,962.478 L268.650,960.976 L268.134,959.475 L267.615,957.975 L267.093,956.476 L266.567,954.977 L266.038,953.478 L265.506,951.980 L264.971,950.482 L264.432,948.984 L263.891,947.486 L263.347,945.988 L262.800,944.491 L262.250,942.993 L261.698,941.495 L261.144,939.996 L260.587,938.498 L260.027,936.999 L259.466,935.499 L258.903,933.999 L258.337,932.498 L257.771,930.997 L257.202,929.495 L256.633,927.992 L256.062,926.487 L255.490,924.982 L254.917,923.476 L254.343,921.969 L253.769,920.460 L253.195,918.950 L252.620,917.439 L252.046,915.926 L251.472,914.412 L250.898,912.896 L250.325,911.379 L249.753,909.860 L249.181,908.339 L248.611,906.816 L248.043,905.291 L247.477,903.765 L246.912,902.237 L246.349,900.706 L245.789,899.174 L245.232,897.639 L244.677,896.102 L244.126,894.563 L243.578,893.022 L243.033,891.479 L242.493,889.933 L241.956,888.385 L241.424,886.835 L240.896,885.283 L240.373,883.728 L239.855,882.170 L239.342,880.610 L238.835,879.048 L238.333,877.484 L237.838,875.916 L237.349,874.347 L236.866,872.775 L236.389,871.201 L235.920,869.624 L235.458,868.044 L235.003,866.463 L234.556,864.879 L234.116,863.292 L233.685,861.703 L233.262,860.112 L232.847,858.519 L232.441,856.923 L232.044,855.325 L231.656,853.724 L231.277,852.122 L230.908,850.517 L230.548,848.910 L230.198,847.301 L229.858,845.690 L229.529,844.077 L229.210,842.463 L228.901,840.846 L228.604,839.227 L228.317,837.607 L228.041,835.985 L227.776,834.361 L227.523,832.735 L227.281,831.109 L227.050,829.480 L226.832,827.850 L226.625,826.219 L226.430,824.587 L226.248,822.953 L226.077,821.318 L225.919,819.683 L225.773,818.046 L225.639,816.408 L225.518,814.770 L225.410,813.130 L225.314,811.491 L225.231,809.850 L225.160,808.209 L225.103,806.568 L225.058,804.926 L225.026,803.284 L225.006,801.642 L225.000,800.000 L225.006,798.358 L225.026,796.716 L225.058,795.074 L225.103,793.432 L225.160,791.791 L225.231,790.150 L225.314,788.509 L225.410,786.870 L225.518,785.230 L225.639,783.592 L225.773,781.954 L225.919,780.317 L226.077,778.682 L226.248,777.047 L226.430,775.413 L226.625,773.781 L226.832,772.150 L227.050,770.520 L227.281,768.891 L227.523,767.265 L227.776,765.639 L228.041,764.015 L228.317,762.393 L228.604,760.773 L228.901,759.154 L229.210,757.537 L229.529,755.923 L229.858,754.310 L230.198,752.699 L230.548,751.090 L230.908,749.483 L231.277,747.878 L231.656,746.276 L232.044,744.675 L232.441,743.077 L232.847,741.481 L233.262,739.888 L233.685,738.297 L234.116,736.708 L234.556,735.121 L235.003,733.537 L235.458,731.956 L235.920,730.376 L236.389,728.799 L236.866,727.225 L237.349,725.653 L237.838,724.084 L238.333,722.516 L238.835,720.952 L239.342,719.390 L239.855,717.830 L240.373,716.272 L240.896,714.717 L241.424,713.165 L241.956,711.615 L242.493,710.067 L243.033,708.521 L243.578,706.978 L244.126,705.437 L244.677,703.898 L245.232,702.361 L245.789,700.826 L246.349,699.294 L246.912,697.763 L247.477,696.235 L248.043,694.709 L248.611,693.184 L249.181,691.661 L249.753,690.140 L250.325,688.621 L250.898,687.104 L251.472,685.588 L252.046,684.074 L252.620,682.561 L253.195,681.050 L253.769,679.540 L254.343,678.031 L254.917,676.524 L255.490,675.018 L256.062,673.513 L256.633,672.008 L257.202,670.505 L257.771,669.003 L258.337,667.502 L258.903,666.001 L259.466,664.501 L260.027,663.001 L260.587,661.502 L261.144,660.004 L261.698,658.505 L262.250,657.007 L262.800,655.509 L263.347,654.012 L263.891,652.514 L264.432,651.016 L264.971,649.518 L265.506,648.020 L266.038,646.522 L266.567,645.023 L267.093,643.524 L267.615,642.025 L268.134,640.525 L268.650,639.024 L269.162,637.522 L269.671,636.020 L270.177,634.517 L270.679,633.013 L271.177,631.508 L271.672,630.003 L272.164,628.496 L272.652,626.988 L273.136,625.478 L273.618,623.968 L274.096,622.456 L274.570,620.943 L275.041,619.429 L275.509,617.913 L275.974,616.395 L276.436,614.877 L276.895,613.356 L277.351,611.835 L277.804,610.311 L278.254,608.786 L278.701,607.260 L279.146,605.732 L279.589,604.202 L280.029,602.670 L280.467,601.137 L280.902,599.602 L281.336,598.066 L281.768,596.528 L282.198,594.988 L282.627,593.446 L283.054,591.903 L283.480,590.359 L283.905,588.812 L284.329,587.264 L284.752,585.715 L285.175,584.164 L285.597,582.612 L286.019,581.058 L286.441,579.502 L286.863,577.946 L287.285,576.388 L287.708,574.829 L288.132,573.268 L288.556,571.707 L288.982,570.144 L289.408,568.581 L289.837,567.016 L290.267,565.451 L290.699,563.885 L291.132,562.318 L291.569,560.750 L292.008,559.182 L292.449,557.614 L292.894,556.045 L293.341,554.476 L293.792,552.907 L294.247,551.338 L294.705,549.769 L295.168,548.200 L295.635,546.631 L296.106,545.063 L296.581,543.495 L297.062,541.928 L297.547,540.362 L298.038,538.797 L298.535,537.232 L299.037,535.669 L299.545,534.107 L300.059,532.546 L300.579,530.987 L301.105,529.430 L301.639,527.874 L302.179,526.320 L302.726,524.769 L303.280,523.220 L303.842,521.673 L304.411,520.128 L304.988,518.586 L305.573,517.047 L306.166,515.511 L306.767,513.978 L307.377,512.449 L307.995,510.922 L308.621,509.400 L309.257,507.880 L309.901,506.365 L310.555,504.854 L311.218,503.347 L311.890,501.844 L312.571,500.345 L313.262,498.851 L313.963,497.362 L314.673,495.877 L315.394,494.397 L316.124,492.923 L316.864,491.454 L317.615,489.990 L318.375,488.531 L319.146,487.079 L319.927,485.632 L320.719,484.190 L321.521,482.755 L322.333,481.326 L323.156,479.904 L323.989,478.487 L324.833,477.077 L325.688,475.674 L326.553,474.277 L327.429,472.887 L328.315,471.504 L329.212,470.128 L330.120,468.759 L331.038,467.397 L331.966,466.043 L332.906,464.696 L333.855,463.356 L334.815,462.023 L335.786,460.699 L336.766,459.382 L337.758,458.072 L338.759,456.770 L339.770,455.476 L340.792,454.190 L341.823,452.912 L342.865,451.642 L343.916,450.379 L344.977,449.125 L346.048,447.878 L347.128,446.640 L348.217,445.410 L349.316,444.187 L350.424,442.973 L351.541,441.767 L352.667,440.569 L353.802,439.379 L354.946,438.197 L356.097,437.023 L357.258,435.857 L358.426,434.699 L359.603,433.548 L360.788,432.406 L361.980,431.272 L363.180,430.145 L364.387,429.026 L365.602,427.915 L366.824,426.811 L368.052,425.715 L369.288,424.627 L370.530,423.546 L371.778,422.472 L373.033,421.405 L374.293,420.346 L375.560,419.293 L376.832,418.248 L378.110,417.209 L379.393,416.177 L380.681,415.152 L381.974,414.134 L383.271,413.121 L384.574,412.115 L385.880,411.116 L387.191,410.122 L388.505,409.134 L389.824,408.152 L391.146,407.175 L392.471,406.204 L393.800,405.238 L395.132,404.278 L396.466,403.322 L397.803,402.372 L399.143,401.426 L400.485,400.485 L401.829,399.548 L403.175,398.615 L404.522,397.687 L405.871,396.762 L407.222,395.841 L408.574,394.924 L409.927,394.010 L411.281,393.099 L412.635,392.192 L413.991,391.287 L415.346,390.385 L416.702,389.486 L418.058,388.589 L419.414,387.694 L420.770,386.802 L422.126,385.911 L423.481,385.022 L424.835,384.134 L426.189,383.248 L427.543,382.363 L428.895,381.479 L430.246,380.596 L431.596,379.714 L432.945,378.832 L434.292,377.951 L435.638,377.069 L436.983,376.188 L438.325,375.307 L439.666,374.425 L441.006,373.543 L442.343,372.661 L443.679,371.778 L445.012,370.894 L446.344,370.009 L447.673,369.122 L449.000,368.235 L450.325,367.346 L451.648,366.456 L452.969,365.564 L454.287,364.671 L455.603,363.775 L456.917,362.878 L458.228,361.979 L459.537,361.077 L460.843,360.173 L462.147,359.267 L463.449,358.359 L464.748,357.448 L466.045,356.534 L467.340,355.618 L468.632,354.699 L469.922,353.778 L471.210,352.853 L472.496,351.926 L473.779,350.996 L475.060,350.062 L476.340,349.126 L477.617,348.187 L478.892,347.245 L480.165,346.300 L481.437,345.352 L482.706,344.400 L483.974,343.446 L485.241,342.489 L486.505,341.529 L487.769,340.565 L489.030,339.599 L490.291,338.630 L491.550,337.658 L492.809,336.683 L494.066,335.706 L495.322,334.725 L496.577,333.742 L497.832,332.757 L499.086,331.769 L500.340,330.778 L501.593,329.785 L502.846,328.790 L504.098,327.793 L505.351,326.794 L506.604,325.793 L507.856,324.790 L509.110,323.785 L510.363,322.778 L511.617,321.771 L512.872,320.762 L514.127,319.751 L515.384,318.740 L516.641,317.728 L517.900,316.715 L519.159,315.702 L520.421,314.688 L521.683,313.674 L522.948,312.660 L524.214,311.646 L525.482,310.632 L526.752,309.619 L528.024,308.606 L529.298,307.595 L530.575,306.584 L531.854,305.575 L533.135,304.567 L534.420,303.561 L535.707,302.556 L536.997,301.554 L538.290,300.554 L539.587,299.557 L540.886,298.562 L542.189,297.570 L543.495,296.581 L544.805,295.596 L546.119,294.614 L547.436,293.636 L548.757,292.662 L550.082,291.693 L551.411,290.728 L552.744,289.767 L554.081,288.812 L555.423,287.861 L556.769,286.916 L558.119,285.977 L559.474,285.043 L560.833,284.115 L562.196,283.194 L563.565,282.279 L564.938,281.371 L566.316,280.470 L567.698,279.576 L569.086,278.689 L570.478,277.809 L571.875,276.938 L573.277,276.074 L574.684,275.219 L576.096,274.372 L577.513,273.533 L578.935,272.703 L580.362,271.882 L581.795,271.070 L583.232,270.268 L584.674,269.475 L586.122,268.691 L587.574,267.918 L589.031,267.154 L590.494,266.401 L591.962,265.657 L593.434,264.925 L594.912,264.202 L596.394,263.491 L597.882,262.790 L599.374,262.101 L600.871,261.422 L602.373,260.755 L603.880,260.099 L605.391,259.454 L606.908,258.821 L608.429,258.200 L609.954,257.590 L611.484,256.992 L613.018,256.406 L614.557,255.832 L616.101,255.270 L617.648,254.720 L619.200,254.182 L620.755,253.656 L622.315,253.143 L623.879,252.641 L625.447,252.152 L627.018,251.675 L628.593,251.211 L630.172,250.758 L631.755,250.318 L633.341,249.890 L634.930,249.475 L636.522,249.071 L638.118,248.680 L639.717,248.301 L641.318,247.934 L642.923,247.579 L644.530,247.236 L646.141,246.905 L647.753,246.586 L649.369,246.279 L650.986,245.983 L652.606,245.699 L654.228,245.426 L655.852,245.165 L657.478,244.915 L659.106,244.676 L660.736,244.448 L662.367,244.231 L664.000,244.025 L665.635,243.829 L667.271,243.644 L668.908,243.469 L670.546,243.305 L672.185,243.150 L673.826,243.006 L675.467,242.871 L677.109,242.745 L678.751,242.629 L680.395,242.522 L682.038,242.424 L683.682,242.335 L685.327,242.254 L686.971,242.182 L688.616,242.118 L690.261,242.062 L691.906,242.013 L693.551,241.972 L695.195,241.939 L696.839,241.912 L698.483,241.893 L700.127,241.880 L701.770,241.873 L703.412,241.873 L705.054,241.878 L706.695,241.890 L708.336,241.907 L709.976,241.929 L711.615,241.956 L713.253,241.988 L714.890,242.025 L716.526,242.066 L718.161,242.111 L719.795,242.160 L721.428,242.212 L723.059,242.268 L724.690,242.327 L726.319,242.389 L727.947,242.454 L729.574,242.521 L731.200,242.590 L732.824,242.662 L734.447,242.735 L736.068,242.810 L737.689,242.886 L739.308,242.963 L740.925,243.042 L742.541,243.120 L744.156,243.200 L745.770,243.279 L747.382,243.359 L748.993,243.439 L750.602,243.518 L752.211,243.597 L753.817,243.675 L755.423,243.753 L757.027,243.829 L758.631,243.904 L760.233,243.978 L761.833,244.050 L763.433,244.120 L765.031,244.189 L766.629,244.256 L768.225,244.320 L769.820,244.383 L771.415,244.442 L773.008,244.500 L774.601,244.554 L776.192,244.606 L777.783,244.655 L779.373,244.702 L780.963,244.745 L782.552,244.785 L784.140,244.821 L785.727,244.855 L787.315,244.885 L788.901,244.912 L790.487,244.935 L792.073,244.955 L793.659,244.971 L795.245,244.984 L796.830,244.993 L798.415,244.998 L800.000,245.000 L801.585,244.998 L803.170,244.993 L804.755,244.984 L806.341,244.971 L807.927,244.955 L809.513,244.935 L811.099,244.912 L812.685,244.885 L814.273,244.855 L815.860,244.821 L817.448,244.785 L819.037,244.745 L820.627,244.702 L822.217,244.655 L823.808,244.606 L825.399,244.554 L826.992,244.500 L828.585,244.442 L830.180,244.383 L831.775,244.320 L833.371,244.256 L834.969,244.189 L836.567,244.120 L838.167,244.050 L839.767,243.978 L841.369,243.904 L842.973,243.829 L844.577,243.753 L846.183,243.675 L847.789,243.597 L849.398,243.518 L851.007,243.439 L852.618,243.359 L854.230,243.279 L855.844,243.200 L857.459,243.120 L859.075,243.042 L860.692,242.963 L862.311,242.886 L863.932,242.810 L865.553,242.735 L867.176,242.662 L868.800,242.590 L870.426,242.521 L872.053,242.454 L873.681,242.389 L875.310,242.327 L876.941,242.268 L878.572,242.212 L880.205,242.160 L881.839,242.111 L883.474,242.066 L885.110,242.025 L886.747,241.988 L888.385,241.956 L890.024,241.929 L891.664,241.907 L893.305,241.890 L894.946,241.878 L896.588,241.873 L898.230,241.873 L899.873,241.880 L901.517,241.893 L903.161,241.912 L904.805,241.939 L906.449,241.972 L908.094,242.013 L909.739,242.062 L911.384,242.118 L913.029,242.182 L914.673,242.254 L916.318,242.335 L917.962,242.424 L919.605,242.522 L921.249,242.629 L922.891,242.745 L924.533,242.871 L926.174,243.006 L927.815,243.150 L929.454,243.305 L931.092,243.469 L932.729,243.644 L934.365,243.829 L936.000,244.025 L937.633,244.231 L939.264,244.448 L940.894,244.676 L942.522,244.915 L944.148,245.165 L945.772,245.426 L947.394,245.699 L949.014,245.983 L950.631,246.279 L952.247,246.586 L953.859,246.905 L955.470,247.236 L957.077,247.579 L958.682,247.934 L960.283,248.301 L961.882,248.680 L963.478,249.071 L965.070,249.475 L966.659,249.890 L968.245,250.318 L969.828,250.758 L971.407,251.211 L972.982,251.675 L974.553,252.152 L976.121,252.641 L977.685,253.143 L979.245,253.656 L980.800,254.182 L982.352,254.720 L983.899,255.270 L985.443,255.832 L986.982,256.406 L988.516,256.992 L990.046,257.590 L991.571,258.200 L993.092,258.821 L994.609,259.454 L996.120,260.099 L997.627,260.755 L999.129,261.422 L1000.626,262.101 L1002.118,262.790 L1003.606,263.491 L1005.088,264.202 L1006.566,264.925 L1008.038,265.657 L1009.506,266.401 L1010.969,267.154 L1012.426,267.918 L1013.878,268.691 L1015.326,269.475 L1016.768,270.268 L1018.205,271.070 L1019.638,271.882 L1021.065,272.703 L1022.487,273.533 L1023.904,274.372 L1025.316,275.219 L1026.723,276.074 L1028.125,276.938 L1029.522,277.809 L1030.914,278.689 L1032.302,279.576 L1033.684,280.470 L1035.062,281.371 L1036.435,282.279 L1037.804,283.194 L1039.167,284.115 L1040.526,285.043 L1041.881,285.977 L1043.231,286.916 L1044.577,287.861 L1045.919,288.812 L1047.256,289.767 L1048.589,290.728 L1049.918,291.693 L1051.243,292.662 L1052.564,293.636 L1053.881,294.614 L1055.195,295.596 L1056.505,296.581 L1057.811,297.570 L1059.114,298.562 L1060.413,299.557 L1061.710,300.554 L1063.003,301.554 L1064.293,302.556 L1065.580,303.561 L1066.865,304.567 L1068.146,305.575 L1069.425,306.584 L1070.702,307.595 L1071.976,308.606 L1073.248,309.619 L1074.518,310.632 L1075.786,311.646 L1077.052,312.660 L1078.317,313.674 L1079.579,314.688 L1080.841,315.702 L1082.100,316.715 L1083.359,317.728 L1084.616,318.740 L1085.873,319.751 L1087.128,320.762 L1088.383,321.771 L1089.637,322.778 L1090.890,323.785 L1092.144,324.790 L1093.396,325.793 L1094.649,326.794 L1095.902,327.793 L1097.154,328.790 L1098.407,329.785 L1099.660,330.778 L1100.914,331.769 L1102.168,332.757 L1103.423,333.742 L1104.678,334.725 L1105.934,335.706 L1107.191,336.683 L1108.450,337.658 L1109.709,338.630 L1110.970,339.599 L1112.231,340.565 L1113.495,341.529 L1114.759,342.489 L1116.026,343.446 L1117.294,344.400 L1118.563,345.352 L1119.835,346.300 L1121.108,347.245 L1122.383,348.187 L1123.660,349.126 L1124.940,350.062 L1126.221,350.996 L1127.504,351.926 L1128.790,352.853 L1130.078,353.778 L1131.368,354.699 L1132.660,355.618 L1133.955,356.534 L1135.252,357.448 L1136.551,358.359 L1137.853,359.267 L1139.157,360.173 L1140.463,361.077 L1141.772,361.979 L1143.083,362.878 L1144.397,363.775 L1145.713,364.671 L1147.031,365.564 L1148.352,366.456 L1149.675,367.346 L1151.000,368.235 L1152.327,369.122 L1153.656,370.009 L1154.988,370.894 L1156.321,371.778 L1157.657,372.661 L1158.994,373.543 L1160.334,374.425 L1161.675,375.307 L1163.017,376.188 L1164.362,377.069 L1165.708,377.951 L1167.055,378.832 L1168.404,379.714 L1169.754,380.596 L1171.105,381.479 L1172.457,382.363 L1173.811,383.248 L1175.165,384.134 L1176.519,385.022 L1177.874,385.911 L1179.230,386.802 L1180.586,387.694 L1181.942,388.589 L1183.298,389.486 L1184.654,390.385 L1186.009,391.287 L1187.365,392.192 L1188.719,393.099 L1190.073,394.010 L1191.426,394.924 L1192.778,395.841 L1194.129,396.762 L1195.478,397.687 L1196.825,398.615 L1198.171,399.548 L1199.515,400.485 L1200.857,401.426 L1202.197,402.372 L1203.534,403.322 L1204.868,404.278 L1206.200,405.238 L1207.529,406.204 L1208.854,407.175 L1210.176,408.152 L1211.495,409.134 L1212.809,410.122 L1214.120,411.116 L1215.426,412.115 L1216.729,413.121 L1218.026,414.134 L1219.319,415.152 L1220.607,416.177 L1221.890,417.209 L1223.168,418.248 L1224.440,419.293 L1225.707,420.346 L1226.967,421.405 L1228.222,422.472 L1229.470,423.546 L1230.712,424.627 L1231.948,425.715 L1233.176,426.811 L1234.398,427.915 L1235.613,429.026 L1236.820,430.145 L1238.020,431.272 L1239.212,432.406 L1240.397,433.548 L1241.574,434.699 L1242.742,435.857 L1243.903,437.023 L1245.054,438.197 L1246.198,439.379 L1247.333,440.569 L1248.459,441.767 L1249.576,442.973 L1250.684,444.187 L1251.783,445.410 L1252.872,446.640 L1253.952,447.878 L1255.023,449.125 L1256.084,450.379 L1257.135,451.642 L1258.177,452.912 L1259.208,454.190 L1260.230,455.476 L1261.241,456.770 L1262.242,458.072 L1263.234,459.382 L1264.214,460.699 L1265.185,462.023 L1266.145,463.356 L1267.094,464.696 L1268.034,466.043 L1268.962,467.397 L1269.880,468.759 L1270.788,470.128 L1271.685,471.504 L1272.571,472.887 L1273.447,474.277 L1274.312,475.674 L1275.167,477.077 L1276.011,478.487 L1276.844,479.904 L1277.667,481.326 L1278.479,482.755 L1279.281,484.190 L1280.073,485.632 L1280.854,487.079 L1281.625,488.531 L1282.385,489.990 L1283.136,491.454 L1283.876,492.923 L1284.606,494.397 L1285.327,495.877 L1286.037,497.362 L1286.738,498.851 L1287.429,500.345 L1288.110,501.844 L1288.782,503.347 L1289.445,504.854 L1290.099,506.365 L1290.743,507.880 L1291.379,509.400 L1292.005,510.922 L1292.623,512.449 L1293.233,513.978 L1293.834,515.511 L1294.427,517.047 L1295.012,518.586 L1295.589,520.128 L1296.158,521.673 L1296.720,523.220 L1297.274,524.769 L1297.821,526.320 L1298.361,527.874 L1298.895,529.430 L1299.421,530.987 L1299.941,532.546 L1300.455,534.107 L1300.963,535.669 L1301.465,537.232 L1301.962,538.797 L1302.453,540.362 L1302.938,541.928 L1303.419,543.495 L1303.894,545.063 L1304.365,546.631 L1304.832,548.200 L1305.295,549.769 L1305.753,551.338 L1306.208,552.907 L1306.659,554.476 L1307.106,556.045 L1307.551,557.614 L1307.992,559.182 L1308.431,560.750 L1308.868,562.318 L1309.301,563.885 L1309.733,565.451 L1310.163,567.016 L1310.592,568.581 L1311.018,570.144 L1311.444,571.707 L1311.868,573.268 L1312.292,574.829 L1312.715,576.388 L1313.137,577.946 L1313.559,579.502 L1313.981,581.058 L1314.403,582.612 L1314.825,584.164 L1315.248,585.715 L1315.671,587.264 L1316.095,588.812 L1316.520,590.359 L1316.946,591.903 L1317.373,593.446 L1317.802,594.988 L1318.232,596.528 L1318.664,598.066 L1319.098,599.602 L1319.533,601.137 L1319.971,602.670 L1320.411,604.202 L1320.854,605.732 L1321.299,607.260 L1321.746,608.786 L1322.196,610.311 L1322.649,611.835 L1323.105,613.356 L1323.564,614.877 L1324.026,616.395 L1324.491,617.913 L1324.959,619.429 L1325.430,620.943 L1325.904,622.456 L1326.382,623.968 L1326.864,625.478 L1327.348,626.988 L1327.836,628.496 L1328.328,630.003 L1328.823,631.508 L1329.321,633.013 L1329.823,634.517 L1330.329,636.020 L1330.838,637.522 L1331.350,639.024 L1331.866,640.525 L1332.385,642.025 L1332.907,643.524 L1333.433,645.023 L1333.962,646.522 L1334.494,648.020 L1335.029,649.518 L1335.568,651.016 L1336.109,652.514 L1336.653,654.012 L1337.200,655.509 L1337.750,657.007 L1338.302,658.505 L1338.856,660.004 L1339.413,661.502 L1339.973,663.001 L1340.534,664.501 L1341.097,666.001 L1341.663,667.502 L1342.229,669.003 L1342.798,670.505 L1343.367,672.008 L1343.938,673.513 L1344.510,675.018 L1345.083,676.524 L1345.657,678.031 L1346.231,679.540 L1346.805,681.050 L1347.380,682.561 L1347.954,684.074 L1348.528,685.588 L1349.102,687.104 L1349.675,688.621 L1350.247,690.140 L1350.819,691.661 L1351.389,693.184 L1351.957,694.709 L1352.523,696.235 L1353.088,697.763 L1353.651,699.294 L1354.211,700.826 L1354.768,702.361 L1355.323,703.898 L1355.874,705.437 L1356.422,706.978 L1356.967,708.521 L1357.507,710.067 L1358.044,711.615 L1358.576,713.165 L1359.104,714.717 L1359.627,716.272 L1360.145,717.830 L1360.658,719.390 L1361.165,720.952 L1361.667,722.516 L1362.162,724.084 L1362.651,725.653 L1363.134,727.225 L1363.611,728.799 L1364.080,730.376 L1364.542,731.956 L1364.997,733.537 L1365.444,735.121 L1365.884,736.708 L1366.315,738.297 L1366.738,739.888 L1367.153,741.481 L1367.559,743.077 L1367.956,744.675 L1368.344,746.276 L1368.723,747.878 L1369.092,749.483 L1369.452,751.090 L1369.802,752.699 L1370.142,754.310 L1370.471,755.923 L1370.790,757.537 L1371.099,759.154 L1371.396,760.773 L1371.683,762.393 L1371.959,764.015 L1372.224,765.639 L1372.477,767.265 L1372.719,768.891 L1372.950,770.520 L1373.168,772.150 L1373.375,773.781 L1373.570,775.413 L1373.752,777.047 L1373.923,778.682 L1374.081,780.317 L1374.227,781.954 L1374.361,783.592 L1374.482,785.230 L1374.590,786.870 L1374.686,788.509 L1374.769,790.150 L1374.840,791.791 L1374.897,793.432 L1374.942,795.074 L1374.974,796.716 L1374.994,798.358 L1375.000,800.000" fill="none" stroke="#b7892e" stroke-width="1.600" stroke-linejoin="round" stroke-linecap="round" /><circle cx="1365.000" cy="800.000" r="1.6" fill="#d4af37" /><circle cx="1364.770" cy="816.134" r="1.6" fill="#d4af37" /><circle cx="1364.079" cy="832.255" r="1.6" fill="#d4af37" /><circle cx="1362.927" cy="848.350" r="1.6" fill="#d4af37" /><circle cx="1361.317" cy="864.405" r="1.6" fill="#d4af37" /><circle cx="1359.249" cy="880.408" r="1.6" fill="#d4af37" /><circle cx="1356.725" cy="896.345" r="1.6" fill="#d4af37" /><circle cx="1353.747" cy="912.204" r="1.6" fill="#d4af37" /><circle cx="1350.317" cy="927.971" r="1.6" fill="#d4af37" /><circle cx="1346.438" cy="943.633" r="1.6" fill="#d4af37" /><circle cx="1342.114" cy="959.179" r="1.6" fill="#d4af37" /><circle cx="1337.347" cy="974.595" r="1.6" fill="#d4af37" /><circle cx="1332.142" cy="989.868" r="1.6" fill="#d4af37" /><circle cx="1326.503" cy="1004.986" r="1.6" fill="#d4af37" /><circle cx="1320.435" cy="1019.938" r="1.6" fill="#d4af37" /><circle cx="1313.942" cy="1034.709" r="1.6" fill="#d4af37" /><circle cx="1307.030" cy="1049.290" r="1.6" fill="#d4af37" /><circle cx="1299.705" cy="1063.667" r="1.6" fill="#d4af37" /><circle cx="1291.972" cy="1077.829" r="1.6" fill="#d4af37" /><circle cx="1283.837" cy="1091.765" r="1.6" fill="#d4af37" /><circle cx="1275.308" cy="1105.462" r="1.6" fill="#d4af37" /><circle cx="1266.392" cy="1118.910" r="1.6" fill="#d4af37" /><circle cx="1257.095" cy="1132.099" r="1.6" fill="#d4af37" /><circle cx="1247.425" cy="1145.016" r="1.6" fill="#d4af37" /><circle cx="1237.390" cy="1157.652" r="1.6" fill="#d4af37" /><circle cx="1226.999" cy="1169.996" r="1.6" fill="#d4af37" /><circle cx="1216.259" cy="1182.039" r="1.6" fill="#d4af37" /><circle cx="1205.179" cy="1193.770" r="1.6" fill="#d4af37" /><circle cx="1193.770" cy="1205.179" r="1.6" fill="#d4af37" /><circle cx="1182.039" cy="1216.259" r="1.6" fill="#d4af37" /><circle cx="1169.996" cy="1226.999" r="1.6" fill="#d4af37" /><circle cx="1157.652" cy="1237.390" r="1.6" fill="#d4af37" /><circle cx="1145.016" cy="1247.425" r="1.6" fill="#d4af37" /><circle cx="1132.099" cy="1257.095" r="1.6" fill="#d4af37" /><circle cx="1118.910" cy="1266.392" r="1.6" fill="#d4af37" /><circle cx="1105.462" cy="1275.308" r="1.6" fill="#d4af37" /><circle cx="1091.765" cy="1283.837" r="1.6" fill="#d4af37" /><circle cx="1077.829" cy="1291.972" r="1.6" fill="#d4af37" /><circle cx="1063.667" cy="1299.705" r="1.6" fill="#d4af37" /><circle cx="1049.290" cy="1307.030" r="1.6" fill="#d4af37" /><circle cx="1034.709" cy="1313.942" r="1.6" fill="#d4af37" /><circle cx="1019.938" cy="1320.435" r="1.6" fill="#d4af37" /><circle cx="1004.986" cy="1326.503" r="1.6" fill="#d4af37" /><circle cx="989.868" cy="1332.142" r="1.6" fill="#d4af37" /><circle cx="974.595" cy="1337.347" r="1.6" fill="#d4af37" /><circle cx="959.179" cy="1342.114" r="1.6" fill="#d4af37" /><circle cx="943.633" cy="1346.438" r="1.6" fill="#d4af37" /><circle cx="927.971" cy="1350.317" r="1.6" fill="#d4af37" /><circle cx="912.204" cy="1353.747" r="1.6" fill="#d4af37" /><circle cx="896.345" cy="1356.725" r="1.6" fill="#d4af37" /><circle cx="880.408" cy="1359.249" r="1.6" fill="#d4af37" /><circle cx="864.405" cy="1361.317" r="1.6" fill="#d4af37" /><circle cx="848.350" cy="1362.927" r="1.6" fill="#d4af37" /><circle cx="832.255" cy="1364.079" r="1.6" fill="#d4af37" /><circle cx="816.134" cy="1364.770" r="1.6" fill="#d4af37" /><circle cx="800.000" cy="1365.000" r="1.6" fill="#d4af37" /><circle cx="783.866" cy="1364.770" r="1.6" fill="#d4af37" /><circle cx="767.745" cy="1364.079" r="1.6" fill="#d4af37" /><circle cx="751.650" cy="1362.927" r="1.6" fill="#d4af37" /><circle cx="735.595" cy="1361.317" r="1.6" fill="#d4af37" /><circle cx="719.592" cy="1359.249" r="1.6" fill="#d4af37" /><circle cx="703.655" cy="1356.725" r="1.6" fill="#d4af37" /><circle cx="687.796" cy="1353.747" r="1.6" fill="#d4af37" /><circle cx="672.029" cy="1350.317" r="1.6" fill="#d4af37" /><circle cx="656.367" cy="1346.438" r="1.6" fill="#d4af37" /><circle cx="640.821" cy="1342.114" r="1.6" fill="#d4af37" /><circle cx="625.405" cy="1337.347" r="1.6" fill="#d4af37" /><circle cx="610.132" cy="1332.142" r="1.6" fill="#d4af37" /><circle cx="595.014" cy="1326.503" r="1.6" fill="#d4af37" /><circle cx="580.062" cy="1320.435" r="1.6" fill="#d4af37" /><circle cx="565.291" cy="1313.942" r="1.6" fill="#d4af37" /><circle cx="550.710" cy="1307.030" r="1.6" fill="#d4af37" /><circle cx="536.333" cy="1299.705" r="1.6" fill="#d4af37" /><circle cx="522.171" cy="1291.972" r="1.6" fill="#d4af37" /><circle cx="508.235" cy="1283.837" r="1.6" fill="#d4af37" /><circle cx="494.538" cy="1275.308" r="1.6" fill="#d4af37" /><circle cx="481.090" cy="1266.392" r="1.6" fill="#d4af37" /><circle cx="467.901" cy="1257.095" r="1.6" fill="#d4af37" /><circle cx="454.984" cy="1247.425" r="1.6" fill="#d4af37" /><circle cx="442.348" cy="1237.390" r="1.6" fill="#d4af37" /><circle cx="430.004" cy="1226.999" r="1.6" fill="#d4af37" /><circle cx="417.961" cy="1216.259" r="1.6" fill="#d4af37" /><circle cx="406.230" cy="1205.179" r="1.6" fill="#d4af37" /><circle cx="394.821" cy="1193.770" r="1.6" fill="#d4af37" /><circle cx="383.741" cy="1182.039" r="1.6" fill="#d4af37" /><circle cx="373.001" cy="1169.996" r="1.6" fill="#d4af37" /><circle cx="362.610" cy="1157.652" r="1.6" fill="#d4af37" /><circle cx="352.575" cy="1145.016" r="1.6" fill="#d4af37" /><circle cx="342.905" cy="1132.099" r="1.6" fill="#d4af37" /><circle cx="333.608" cy="1118.910" r="1.6" fill="#d4af37" /><circle cx="324.692" cy="1105.462" r="1.6" fill="#d4af37" /><circle cx="316.163" cy="1091.765" r="1.6" fill="#d4af37" /><circle cx="308.028" cy="1077.829" r="1.6" fill="#d4af37" /><circle cx="300.295" cy="1063.667" r="1.6" fill="#d4af37" /><circle cx="292.970" cy="1049.290" r="1.6" fill="#d4af37" /><circle cx="286.058" cy="1034.709" r="1.6" fill="#d4af37" /><circle cx="279.565" cy="1019.938" r="1.6" fill="#d4af37" /><circle cx="273.497" cy="1004.986" r="1.6" fill="#d4af37" /><circle cx="267.858" cy="989.868" r="1.6" fill="#d4af37" /><circle cx="262.653" cy="974.595" r="1.6" fill="#d4af37" /><circle cx="257.886" cy="959.179" r="1.6" fill="#d4af37" /><circle cx="253.562" cy="943.633" r="1.6" fill="#d4af37" /><circle cx="249.683" cy="927.971" r="1.6" fill="#d4af37" /><circle cx="246.253" cy="912.204" r="1.6" fill="#d4af37" /><circle cx="243.275" cy="896.345" r="1.6" fill="#d4af37" /><circle cx="240.751" cy="880.408" r="1.6" fill="#d4af37" /><circle cx="238.683" cy="864.405" r="1.6" fill="#d4af37" /><circle cx="237.073" cy="848.350" r="1.6" fill="#d4af37" /><circle cx="235.921" cy="832.255" r="1.6" fill="#d4af37" /><circle cx="235.230" cy="816.134" r="1.6" fill="#d4af37" /><circle cx="235.000" cy="800.000" r="1.6" fill="#d4af37" /><circle cx="235.230" cy="783.866" r="1.6" fill="#d4af37" /><circle cx="235.921" cy="767.745" r="1.6" fill="#d4af37" /><circle cx="237.073" cy="751.650" r="1.6" fill="#d4af37" /><circle cx="238.683" cy="735.595" r="1.6" fill="#d4af37" /><circle cx="240.751" cy="719.592" r="1.6" fill="#d4af37" /><circle cx="243.275" cy="703.655" r="1.6" fill="#d4af37" /><circle cx="246.253" cy="687.796" r="1.6" fill="#d4af37" /><circle cx="249.683" cy="672.029" r="1.6" fill="#d4af37" /><circle cx="253.562" cy="656.367" r="1.6" fill="#d4af37" /><circle cx="257.886" cy="640.821" r="1.6" fill="#d4af37" /><circle cx="262.653" cy="625.405" r="1.6" fill="#d4af37" /><circle cx="267.858" cy="610.132" r="1.6" fill="#d4af37" /><circle cx="273.497" cy="595.014" r="1.6" fill="#d4af37" /><circle cx="279.565" cy="580.062" r="1.6" fill="#d4af37" /><circle cx="286.058" cy="565.291" r="1.6" fill="#d4af37" /><circle cx="292.970" cy="550.710" r="1.6" fill="#d4af37" /><circle cx="300.295" cy="536.333" r="1.6" fill="#d4af37" /><circle cx="308.028" cy="522.171" r="1.6" fill="#d4af37" /><circle cx="316.163" cy="508.235" r="1.6" fill="#d4af37" /><circle cx="324.692" cy="494.538" r="1.6" fill="#d4af37" /><circle cx="333.608" cy="481.090" r="1.6" fill="#d4af37" /><circle cx="342.905" cy="467.901" r="1.6" fill="#d4af37" /><circle cx="352.575" cy="454.984" r="1.6" fill="#d4af37" /><circle cx="362.610" cy="442.348" r="1.6" fill="#d4af37" /><circle cx="373.001" cy="430.004" r="1.6" fill="#d4af37" /><circle cx="383.741" cy="417.961" r="1.6" fill="#d4af37" /><circle cx="394.821" cy="406.230" r="1.6" fill="#d4af37" /><circle cx="406.230" cy="394.821" r="1.6" fill="#d4af37" /><circle cx="417.961" cy="383.741" r="1.6" fill="#d4af37" /><circle cx="430.004" cy="373.001" r="1.6" fill="#d4af37" /><circle cx="442.348" cy="362.610" r="1.6" fill="#d4af37" /><circle cx="454.984" cy="352.575" r="1.6" fill="#d4af37" /><circle cx="467.901" cy="342.905" r="1.6" fill="#d4af37" /><circle cx="481.090" cy="333.608" r="1.6" fill="#d4af37" /><circle cx="494.538" cy="324.692" r="1.6" fill="#d4af37" /><circle cx="508.235" cy="316.163" r="1.6" fill="#d4af37" /><circle cx="522.171" cy="308.028" r="1.6" fill="#d4af37" /><circle cx="536.333" cy="300.295" r="1.6" fill="#d4af37" /><circle cx="550.710" cy="292.970" r="1.6" fill="#d4af37" /><circle cx="565.291" cy="286.058" r="1.6" fill="#d4af37" /><circle cx="580.062" cy="279.565" r="1.6" fill="#d4af37" /><circle cx="595.014" cy="273.497" r="1.6" fill="#d4af37" /><circle cx="610.132" cy="267.858" r="1.6" fill="#d4af37" /><circle cx="625.405" cy="262.653" r="1.6" fill="#d4af37" /><circle cx="640.821" cy="257.886" r="1.6" fill="#d4af37" /><circle cx="656.367" cy="253.562" r="1.6" fill="#d4af37" /><circle cx="672.029" cy="249.683" r="1.6" fill="#d4af37" /><circle cx="687.796" cy="246.253" r="1.6" fill="#d4af37" /><circle cx="703.655" cy="243.275" r="1.6" fill="#d4af37" /><circle cx="719.592" cy="240.751" r="1.6" fill="#d4af37" /><circle cx="735.595" cy="238.683" r="1.6" fill="#d4af37" /><circle cx="751.650" cy="237.073" r="1.6" fill="#d4af37" /><circle cx="767.745" cy="235.921" r="1.6" fill="#d4af37" /><circle cx="783.866" cy="235.230" r="1.6" fill="#d4af37" /><circle cx="800.000" cy="235.000" r="1.6" fill="#d4af37" /><circle cx="816.134" cy="235.230" r="1.6" fill="#d4af37" /><circle cx="832.255" cy="235.921" r="1.6" fill="#d4af37" /><circle cx="848.350" cy="237.073" r="1.6" fill="#d4af37" /><circle cx="864.405" cy="238.683" r="1.6" fill="#d4af37" /><circle cx="880.408" cy="240.751" r="1.6" fill="#d4af37" /><circle cx="896.345" cy="243.275" r="1.6" fill="#d4af37" /><circle cx="912.204" cy="246.253" r="1.6" fill="#d4af37" /><circle cx="927.971" cy="249.683" r="1.6" fill="#d4af37" /><circle cx="943.633" cy="253.562" r="1.6" fill="#d4af37" /><circle cx="959.179" cy="257.886" r="1.6" fill="#d4af37" /><circle cx="974.595" cy="262.653" r="1.6" fill="#d4af37" /><circle cx="989.868" cy="267.858" r="1.6" fill="#d4af37" /><circle cx="1004.986" cy="273.497" r="1.6" fill="#d4af37" /><circle cx="1019.938" cy="279.565" r="1.6" fill="#d4af37" /><circle cx="1034.709" cy="286.058" r="1.6" fill="#d4af37" /><circle cx="1049.290" cy="292.970" r="1.6" fill="#d4af37" /><circle cx="1063.667" cy="300.295" r="1.6" fill="#d4af37" /><circle cx="1077.829" cy="308.028" r="1.6" fill="#d4af37" /><circle cx="1091.765" cy="316.163" r="1.6" fill="#d4af37" /><circle cx="1105.462" cy="324.692" r="1.6" fill="#d4af37" /><circle cx="1118.910" cy="333.608" r="1.6" fill="#d4af37" /><circle cx="1132.099" cy="342.905" r="1.6" fill="#d4af37" /><circle cx="1145.016" cy="352.575" r="1.6" fill="#d4af37" /><circle cx="1157.652" cy="362.610" r="1.6" fill="#d4af37" /><circle cx="1169.996" cy="373.001" r="1.6" fill="#d4af37" /><circle cx="1182.039" cy="383.741" r="1.6" fill="#d4af37" /><circle cx="1193.770" cy="394.821" r="1.6" fill="#d4af37" /><circle cx="1205.179" cy="406.230" r="1.6" fill="#d4af37" /><circle cx="1216.259" cy="417.961" r="1.6" fill="#d4af37" /><circle cx="1226.999" cy="430.004" r="1.6" fill="#d4af37" /><circle cx="1237.390" cy="442.348" r="1.6" fill="#d4af37" /><circle cx="1247.425" cy="454.984" r="1.6" fill="#d4af37" /><circle cx="1257.095" cy="467.901" r="1.6" fill="#d4af37" /><circle cx="1266.392" cy="481.090" r="1.6" fill="#d4af37" /><circle cx="1275.308" cy="494.538" r="1.6" fill="#d4af37" /><circle cx="1283.837" cy="508.235" r="1.6" fill="#d4af37" /><circle cx="1291.972" cy="522.171" r="1.6" fill="#d4af37" /><circle cx="1299.705" cy="536.333" r="1.6" fill="#d4af37" /><circle cx="1307.030" cy="550.710" r="1.6" fill="#d4af37" /><circle cx="1313.942" cy="565.291" r="1.6" fill="#d4af37" /><circle cx="1320.435" cy="580.062" r="1.6" fill="#d4af37" /><circle cx="1326.503" cy="595.014" r="1.6" fill="#d4af37" /><circle cx="1332.142" cy="610.132" r="1.6" fill="#d4af37" /><circle cx="1337.347" cy="625.405" r="1.6" fill="#d4af37" /><circle cx="1342.114" cy="640.821" r="1.6" fill="#d4af37" /><circle cx="1346.438" cy="656.367" r="1.6" fill="#d4af37" /><circle cx="1350.317" cy="672.029" r="1.6" fill="#d4af37" /><circle cx="1353.747" cy="687.796" r="1.6" fill="#d4af37" /><circle cx="1356.725" cy="703.655" r="1.6" fill="#d4af37" /><circle cx="1359.249" cy="719.592" r="1.6" fill="#d4af37" /><circle cx="1361.317" cy="735.595" r="1.6" fill="#d4af37" /><circle cx="1362.927" cy="751.650" r="1.6" fill="#d4af37" /><circle cx="1364.079" cy="767.745" r="1.6" fill="#d4af37" /><circle cx="1364.770" cy="783.866" r="1.6" fill="#d4af37" /><path d="M1302.000,800.000 C1280.535,891.667 1253.083,947.216 1246.997,945.238 A36.309,36.309 0 0,1 1246.997,654.762 C1253.083,652.784 1280.535,708.333 1302.000,800.000 Z" fill="none" stroke="#d4af37" stroke-width="3.000" stroke-linejoin="round" stroke-linecap="round" /><path d="M118.513,679.835 C165.066,558.811 211.604,487.144 217.255,490.149 A50.988,50.988 0 0,1 146.423,891.854 C140.085,892.745 120.866,809.483 118.513,679.835 Z" fill="none" stroke="#d4af37" stroke-width="3.000" stroke-linejoin="round" stroke-linecap="round" /><path d="M1271.726,971.694 C1220.203,1050.491 1175.408,1093.301 1170.365,1089.361 A36.309,36.309 0 0,1 1269.714,816.403 C1276.110,816.626 1282.907,878.214 1271.726,971.694 Z" fill="none" stroke="#d4af37" stroke-width="3.000" stroke-linejoin="round" stroke-linecap="round" /><path d="M200.710,454.000 C285.849,356.197 354.091,304.768 358.374,309.524 A50.988,50.988 0 0,1 154.423,662.778 C148.162,661.448 158.580,576.634 200.710,454.000 Z" fill="none" stroke="#d4af37" stroke-width="3.000" stroke-linejoin="round" stroke-linecap="round" /><path d="M1184.554,1122.679 C1109.189,1179.103 1052.454,1204.010 1049.062,1198.583 A36.309,36.309 0 0,1 1235.776,976.065 C1241.710,978.463 1227.033,1038.661 1184.554,1122.679 Z" fill="none" stroke="#d4af37" stroke-width="3.000" stroke-linejoin="round" stroke-linecap="round" /><path d="M355.191,269.897 C468.646,207.111 550.362,182.125 552.760,188.059 A50.988,50.988 0 0,1 240.288,450.253 C234.861,446.862 273.658,370.726 355.191,269.897 Z" fill="none" stroke="#d4af37" stroke-width="3.000" stroke-linejoin="round" stroke-linecap="round" /><path d="M1051.000,1234.745 C960.882,1261.989 899.049,1265.990 897.718,1259.729 A36.309,36.309 0 0,1 1149.278,1114.491 C1154.034,1118.774 1119.653,1170.322 1051.000,1234.745 Z" fill="none" stroke="#d4af37" stroke-width="3.000" stroke-linejoin="round" stroke-linecap="round" /><path d="M563.322,149.733 C691.409,129.537 776.743,134.006 776.966,140.402 A50.988,50.988 0 0,1 393.663,279.913 C389.723,274.870 452.220,216.594 563.322,149.733 Z" fill="none" stroke="#d4af37" stroke-width="3.000" stroke-linejoin="round" stroke-linecap="round" /><path d="M887.171,1294.373 C793.170,1289.152 733.698,1271.764 734.589,1265.426 A36.309,36.309 0 0,1 1020.652,1214.985 C1023.656,1220.636 973.718,1257.317 887.171,1294.373 Z" fill="none" stroke="#d4af37" stroke-width="3.000" stroke-linejoin="round" stroke-linecap="round" /><path d="M800.000,108.000 C927.269,132.830 1005.929,166.216 1003.951,172.303 A50.988,50.988 0 0,1 596.049,172.303 C594.071,166.216 672.731,132.830 800.000,108.000 Z" fill="none" stroke="#d4af37" stroke-width="3.000" stroke-linejoin="round" stroke-linecap="round" /><path d="M712.829,1294.373 C626.282,1257.317 576.344,1220.636 579.348,1214.985 A36.309,36.309 0 0,1 865.411,1265.426 C866.302,1271.764 806.830,1289.152 712.829,1294.373 Z" fill="none" stroke="#d4af37" stroke-width="3.000" stroke-linejoin="round" stroke-linecap="round" /><path d="M1036.678,149.733 C1147.780,216.594 1210.277,274.870 1206.337,279.913 A50.988,50.988 0 0,1 823.034,140.402 C823.257,134.006 908.591,129.537 1036.678,149.733 Z" fill="none" stroke="#d4af37" stroke-width="3.000" stroke-linejoin="round" stroke-linecap="round" /><path d="M549.000,1234.745 C480.347,1170.322 445.966,1118.774 450.722,1114.491 A36.309,36.309 0 0,1 702.282,1259.729 C700.951,1265.990 639.118,1261.989 549.000,1234.745 Z" fill="none" stroke="#d4af37" stroke-width="3.000" stroke-linejoin="round" stroke-linecap="round" /><path d="M1244.809,269.897 C1326.342,370.726 1365.139,446.862 1359.712,450.253 A50.988,50.988 0 0,1 1047.240,188.059 C1049.638,182.125 1131.354,207.111 1244.809,269.897 Z" fill="none" stroke="#d4af37" stroke-width="3.000" stroke-linejoin="round" stroke-linecap="round" /><path d="M415.446,1122.679 C372.967,1038.661 358.290,978.463 364.224,976.065 A36.309,36.309 0 0,1 550.938,1198.583 C547.546,1204.010 490.811,1179.103 415.446,1122.679 Z" fill="none" stroke="#d4af37" stroke-width="3.000" stroke-linejoin="round" stroke-linecap="round" /><path d="M1399.290,454.000 C1441.420,576.634 1451.838,661.448 1445.577,662.778 A50.988,50.988 0 0,1 1241.626,309.524 C1245.909,304.768 1314.151,356.197 1399.290,454.000 Z" fill="none" stroke="#d4af37" stroke-width="3.000" stroke-linejoin="round" stroke-linecap="round" /><path d="M328.274,971.694 C317.093,878.214 323.890,816.626 330.286,816.403 A36.309,36.309 0 0,1 429.635,1089.361 C424.592,1093.301 379.797,1050.491 328.274,971.694 Z" fill="none" stroke="#d4af37" stroke-width="3.000" stroke-linejoin="round" stroke-linecap="round" /><path d="M1481.487,679.835 C1479.134,809.483 1459.915,892.745 1453.577,891.854 A50.988,50.988 0 0,1 1382.745,490.149 C1388.396,487.144 1434.934,558.811 1481.487,679.835 Z" fill="none" stroke="#d4af37" stroke-width="3.000" stroke-linejoin="round" stroke-linecap="round" /><path d="M298.000,800.000 C319.465,708.333 346.917,652.784 353.003,654.762 A36.309,36.309 0 0,1 353.003,945.238 C346.917,947.216 319.465,891.667 298.000,800.000 Z" fill="none" stroke="#d4af37" stroke-width="3.000" stroke-linejoin="round" stroke-linecap="round" /><path d="M1481.487,920.165 C1434.934,1041.189 1388.396,1112.856 1382.745,1109.851 A50.988,50.988 0 0,1 1453.577,708.146 C1459.915,707.255 1479.134,790.517 1481.487,920.165 Z" fill="none" stroke="#d4af37" stroke-width="3.000" stroke-linejoin="round" stroke-linecap="round" /><path d="M328.274,628.306 C379.797,549.509 424.592,506.699 429.635,510.639 A36.309,36.309 0 0,1 330.286,783.597 C323.890,783.374 317.093,721.786 328.274,628.306 Z" fill="none" stroke="#d4af37" stroke-width="3.000" stroke-linejoin="round" stroke-linecap="round" /><path d="M1399.290,1146.000 C1314.151,1243.803 1245.909,1295.232 1241.626,1290.476 A50.988,50.988 0 0,1 1445.577,937.222 C1451.838,938.552 1441.420,1023.366 1399.290,1146.000 Z" fill="none" stroke="#d4af37" stroke-width="3.000" stroke-linejoin="round" stroke-linecap="round" /><path d="M415.446,477.321 C490.811,420.897 547.546,395.990 550.938,401.417 A36.309,36.309 0 0,1 364.224,623.935 C358.290,621.537 372.967,561.339 415.446,477.321 Z" fill="none" stroke="#d4af37" stroke-width="3.000" stroke-linejoin="round" stroke-linecap="round" /><path d="M1244.809,1330.103 C1131.354,1392.889 1049.638,1417.875 1047.240,1411.941 A50.988,50.988 0 0,1 1359.712,1149.747 C1365.139,1153.138 1326.342,1229.274 1244.809,1330.103 Z" fill="none" stroke="#d4af37" stroke-width="3.000" stroke-linejoin="round" stroke-linecap="round" /><path d="M549.000,365.255 C639.118,338.011 700.951,334.010 702.282,340.271 A36.309,36.309 0 0,1 450.722,485.509 C445.966,481.226 480.347,429.678 549.000,365.255 Z" fill="none" stroke="#d4af37" stroke-width="3.000" stroke-linejoin="round" stroke-linecap="round" /><path d="M1036.678,1450.267 C908.591,1470.463 823.257,1465.994 823.034,1459.598 A50.988,50.988 0 0,1 1206.337,1320.087 C1210.277,1325.130 1147.780,1383.406 1036.678,1450.267 Z" fill="none" stroke="#d4af37" stroke-width="3.000" stroke-linejoin="round" stroke-linecap="round" /><path d="M712.829,305.627 C806.830,310.848 866.302,328.236 865.411,334.574 A36.309,36.309 0 0,1 579.348,385.015 C576.344,379.364 626.282,342.683 712.829,305.627 Z" fill="none" stroke="#d4af37" stroke-width="3.000" stroke-linejoin="round" stroke-linecap="round" /><path d="M800.000,1492.000 C672.731,1467.170 594.071,1433.784 596.049,1427.697 A50.988,50.988 0 0,1 1003.951,1427.697 C1005.929,1433.784 927.269,1467.170 800.000,1492.000 Z" fill="none" stroke="#d4af37" stroke-width="3.000" stroke-linejoin="round" stroke-linecap="round" /><path d="M887.171,305.627 C973.718,342.683 1023.656,379.364 1020.652,385.015 A36.309,36.309 0 0,1 734.589,334.574 C733.698,328.236 793.170,310.848 887.171,305.627 Z" fill="none" stroke="#d4af37" stroke-width="3.000" stroke-linejoin="round" stroke-linecap="round" /><path d="M563.322,1450.267 C452.220,1383.406 389.723,1325.130 393.663,1320.087 A50.988,50.988 0 0,1 776.966,1459.598 C776.743,1465.994 691.409,1470.463 563.322,1450.267 Z" fill="none" stroke="#d4af37" stroke-width="3.000" stroke-linejoin="round" stroke-linecap="round" /><path d="M1051.000,365.255 C1119.653,429.678 1154.034,481.226 1149.278,485.509 A36.309,36.309 0 0,1 897.718,340.271 C899.049,334.010 960.882,338.011 1051.000,365.255 Z" fill="none" stroke="#d4af37" stroke-width="3.000" stroke-linejoin="round" stroke-linecap="round" /><path d="M355.191,1330.103 C273.658,1229.274 234.861,1153.138 240.288,1149.747 A50.988,50.988 0 0,1 552.760,1411.941 C550.362,1417.875 468.646,1392.889 355.191,1330.103 Z" fill="none" stroke="#d4af37" stroke-width="3.000" stroke-linejoin="round" stroke-linecap="round" /><path d="M1184.554,477.321 C1227.033,561.339 1241.710,621.537 1235.776,623.935 A36.309,36.309 0 0,1 1049.062,401.417 C1052.454,395.990 1109.189,420.897 1184.554,477.321 Z" fill="none" stroke="#d4af37" stroke-width="3.000" stroke-linejoin="round" stroke-linecap="round" /><path d="M200.710,1146.000 C158.580,1023.366 148.162,938.552 154.423,937.222 A50.988,50.988 0 0,1 358.374,1290.476 C354.091,1295.232 285.849,1243.803 200.710,1146.000 Z" fill="none" stroke="#d4af37" stroke-width="3.000" stroke-linejoin="round" stroke-linecap="round" /><path d="M1271.726,628.306 C1282.907,721.786 1276.110,783.374 1269.714,783.597 A36.309,36.309 0 0,1 1170.365,510.639 C1175.408,506.699 1220.203,549.509 1271.726,628.306 Z" fill="none" stroke="#d4af37" stroke-width="3.000" stroke-linejoin="round" stroke-linecap="round" /><path d="M118.513,920.165 C120.866,790.517 140.085,707.255 146.423,708.146 A50.988,50.988 0 0,1 217.255,1109.851 C211.604,1112.856 165.066,1041.189 118.513,920.165 Z" fill="none" stroke="#d4af37" stroke-width="3.000" stroke-linejoin="round" stroke-linecap="round" /><path d="M1357.811,882.172 L1372.355,899.506 L1355.022,914.050 L1340.477,896.717 Z" fill="none" stroke="#d4af37" stroke-width="3.000" /><path d="M1293.445,1067.045 L1304.759,1086.641 L1285.163,1097.955 L1273.850,1078.359 Z" fill="none" stroke="#d4af37" stroke-width="3.000" /><path d="M1169.937,1218.314 L1177.676,1239.577 L1156.413,1247.316 L1148.674,1226.053 Z" fill="none" stroke="#d4af37" stroke-width="3.000" /><path d="M1002.419,1317.820 L1006.348,1340.104 L984.064,1344.033 L980.135,1321.749 Z" fill="none" stroke="#d4af37" stroke-width="3.000" /><path d="M811.314,1353.686 L811.314,1376.314 L788.686,1376.314 L788.686,1353.686 Z" fill="none" stroke="#d4af37" stroke-width="3.000" /><path d="M619.865,1321.749 L615.936,1344.033 L593.652,1340.104 L597.581,1317.820 Z" fill="none" stroke="#d4af37" stroke-width="3.000" /><path d="M451.326,1226.053 L443.587,1247.316 L422.324,1239.577 L430.063,1218.314 Z" fill="none" stroke="#d4af37" stroke-width="3.000" /><path d="M326.150,1078.359 L314.837,1097.955 L295.241,1086.641 L306.555,1067.045 Z" fill="none" stroke="#d4af37" stroke-width="3.000" /><path d="M259.523,896.717 L244.978,914.050 L227.645,899.506 L242.189,882.172 Z" fill="none" stroke="#d4af37" stroke-width="3.000" /><path d="M259.523,703.283 L242.189,717.828 L227.645,700.494 L244.978,685.950 Z" fill="none" stroke="#d4af37" stroke-width="3.000" /><path d="M326.150,521.641 L306.555,532.955 L295.241,513.359 L314.837,502.045 Z" fill="none" stroke="#d4af37" stroke-width="3.000" /><path d="M451.326,373.947 L430.063,381.686 L422.324,360.423 L443.587,352.684 Z" fill="none" stroke="#d4af37" stroke-width="3.000" /><path d="M619.865,278.251 L597.581,282.180 L593.652,259.896 L615.936,255.967 Z" fill="none" stroke="#d4af37" stroke-width="3.000" /><path d="M811.314,246.314 L788.686,246.314 L788.686,223.686 L811.314,223.686 Z" fill="none" stroke="#d4af37" stroke-width="3.000" /><path d="M1002.419,282.180 L980.135,278.251 L984.064,255.967 L1006.348,259.896 Z" fill="none" stroke="#d4af37" stroke-width="3.000" /><path d="M1169.937,381.686 L1148.674,373.947 L1156.413,352.684 L1177.676,360.423 Z" fill="none" stroke="#d4af37" stroke-width="3.000" /><path d="M1293.445,532.955 L1273.850,521.641 L1285.163,502.045 L1304.759,513.359 Z" fill="none" stroke="#d4af37" stroke-width="3.000" /><path d="M1357.811,717.828 L1340.477,703.283 L1355.022,685.950 L1372.355,700.494 Z" fill="none" stroke="#d4af37" stroke-width="3.000" /></g>
<circle cx="800.000" cy="800.000" r="670.000" fill="none" stroke="#d4af37" stroke-width="4.500" />
<circle cx="800.000" cy="800.000" r="460.000" fill="none" stroke="#d4af37" stroke-width="4.500" />
<circle cx="800.000" cy="800.000" r="565.000" fill="none" stroke="#b7892e" stroke-width="1.200" />
</svg>